<?xml version="1.0" encoding="UTF-8" standalone="no"?>
<svg
   xmlns:dc="http://purl.org/dc/elements/1.1/"
   xmlns:cc="http://creativecommons.org/ns#"
   xmlns:rdf="http://www.w3.org/1999/02/22-rdf-syntax-ns#"
   xmlns:svg="http://www.w3.org/2000/svg"
   xmlns="http://www.w3.org/2000/svg"
   xmlns:sodipodi="http://sodipodi.sourceforge.net/DTD/sodipodi-0.dtd"
   xmlns:inkscape="http://www.inkscape.org/namespaces/inkscape"
   inkscape:version="1.0 (4035a4fb49, 2020-05-01)"
   sodipodi:docname="webdevpanda logo.svg"
   version="1.1"
   id="svg2"
   xml:space="preserve"
   width="2500"
   height="2500"
   viewBox="0 0 2499.9999 2499.9999"><sodipodi:namedview
     inkscape:current-layer="g12"
     inkscape:window-maximized="1"
     inkscape:window-y="-8"
     inkscape:window-x="1358"
     inkscape:cy="1296.1294"
     inkscape:cx="1310.2119"
     inkscape:zoom="0.1767767"
     showguides="false"
     showgrid="false"
     id="namedview288"
     inkscape:window-height="715"
     inkscape:window-width="1366"
     inkscape:pageshadow="2"
     inkscape:pageopacity="0"
     guidetolerance="10"
     gridtolerance="10"
     objecttolerance="10"
     borderopacity="1"
     bordercolor="#666666"
     pagecolor="#ffffff"
     inkscape:document-rotation="0" /><metadata
     id="metadata8"><rdf:RDF><cc:Work
         rdf:about=""><dc:format>image/svg+xml</dc:format><dc:type
           rdf:resource="http://purl.org/dc/dcmitype/StillImage" /><dc:title></dc:title></cc:Work></rdf:RDF></metadata><defs
     id="defs6"><clipPath
       clipPathUnits="userSpaceOnUse"
       id="clipPath174"><path
         d="m 7030,5620 h -418.9 c 26.85,1.52 55.75,3.67 86.49,6.64 43.51,4.23 90.67,10.33 140.66,19.38 49.96,9.19 102.84,20.89 157.37,39.15 11.41,3.68 22.87,7.75 34.38,12.2 V 5620 m -673.66,0 H 5930 v 81.02 c 15.37,-6.11 30.67,-11.58 45.77,-16.65 54.55,-18.21 107.44,-29.7 157.42,-38.91 50,-9.04 97.16,-14.97 140.68,-19.15 29.2,-2.79 56.77,-4.84 82.47,-6.31"
         id="path172" /></clipPath><clipPath
       clipPathUnits="userSpaceOnUse"
       id="clipPath186"><path
         d="m 6611.1,5620 h -254.76 c -25.7,1.47 -53.27,3.52 -82.47,6.31 -43.52,4.18 -90.68,10.11 -140.68,19.15 -49.98,9.21 -102.87,20.7 -157.42,38.91 -15.1,5.07 -30.4,10.54 -45.77,16.65 v 57.07 c 179.29,-78.28 446.23,-89.76 553.27,-89.76 0.15,0 0.3,0 0.45,0 0.14,0 0.31,0 0.45,0 105.2,0 365.96,11.1 545.83,85.82 v -56.78 c -11.51,-4.45 -22.97,-8.52 -34.38,-12.2 -54.53,-18.26 -107.41,-29.96 -157.37,-39.15 -49.99,-9.05 -97.15,-15.15 -140.66,-19.38 -30.74,-2.97 -59.64,-5.12 -86.49,-6.64"
         id="path184" /></clipPath><clipPath
       clipPathUnits="userSpaceOnUse"
       id="clipPath198"><path
         d="m 6484.17,5668.33 c -0.14,0 -0.31,0 -0.45,0 -0.15,0 -0.3,0 -0.45,0 -107.04,0 -373.98,11.48 -553.27,89.76 v 45.16 c 19.2,-13.25 42.52,-20.81 69.44,-20.81 117.86,0 237.86,79.86 235.19,214.48 -2.62,131.64 -40.3,228.38 -139.71,228.51 -0.07,0 -0.12,0 -0.19,0 -62.37,0 -121.97,-39.28 -164.73,-100.31 V 6420 h 1100 v -290.64 c -42.52,58.61 -100.79,96.07 -161.71,96.07 -0.07,0 -0.13,0 -0.19,0 -99.41,-0.13 -137.1,-96.87 -139.71,-228.51 -2.67,-134.62 117.33,-214.48 235.18,-214.48 25.54,0 47.82,6.79 66.43,18.79 v -47.08 c -179.87,-74.72 -440.63,-85.82 -545.83,-85.82 m -0.38,206.48 c 3.19,-6.66 7.27,-12.41 12.01,-17.19 11.84,-11.99 27.45,-17.82 42.58,-17.82 13.34,0 26.5,4.52 36.47,13.66 9.98,9.1 16.38,22.9 16.35,39.75 0,4.15 -3.35,7.51 -7.49,7.51 h -0.01 c -4.14,0 -7.5,-3.35 -7.5,-7.49 -0.07,-13.21 -4.67,-22.38 -11.5,-28.72 -6.86,-6.31 -16.33,-9.71 -26.32,-9.71 -11.32,0 -23.04,4.36 -31.91,13.36 -8.81,8.96 -15.15,22.59 -15.25,42.39 0,0.1 0,0.2 0,0.29 0.02,0.8 -0.1,1.57 -0.31,2.29 1.26,0.57 2.56,1.25 3.89,2.03 0,0 18.84,11.24 33.32,19.88 14.48,8.64 3.72,34.14 -14.1,34.16 l -61.35,0.08 c -0.01,0 -0.02,0 -0.03,0 -17.8,0 -28.06,-24.74 -14.16,-34.13 13.91,-9.39 29.7,-19.94 29.7,-19.94 2.73,-1.86 5.38,-3.13 8.05,-3.82 0,-0.07 0,-0.13 0,-0.2 l -0.01,-0.34 c 0,-0.15 0,-0.3 0,-0.46 -0.18,-19.71 -6.35,-33.3 -14.81,-42.19 -8.58,-8.97 -19.81,-13.26 -30.63,-13.26 -9.56,0 -18.64,3.35 -25.25,9.64 -6.57,6.3 -11.06,15.51 -11.12,28.75 0.08,4.13 -3.2,7.55 -7.33,7.64 -0.06,0.01 -0.12,0.01 -0.17,0.01 -4.07,0 -7.4,-3.25 -7.5,-7.34 v -0.25 c -0.05,-16.79 6.1,-30.54 15.8,-39.69 9.67,-9.18 22.53,-13.77 35.57,-13.76 0.01,0 0.02,0 0.02,0 14.76,0 29.97,5.89 41.45,17.89 4.54,4.74 8.46,10.42 11.54,16.98"
         id="path196" /></clipPath><clipPath
       clipPathUnits="userSpaceOnUse"
       id="clipPath210"><path
         d="m 6430.8,5839.94 c 0,0 -0.01,0 -0.02,0 -13.04,-0.01 -25.9,4.58 -35.57,13.76 -9.7,9.15 -15.85,22.9 -15.8,39.69 v 0.25 c 0.1,4.09 3.43,7.34 7.5,7.34 0.05,0 0.11,0 0.17,-0.01 4.13,-0.09 7.41,-3.51 7.33,-7.64 0.06,-13.24 4.55,-22.45 11.12,-28.75 6.61,-6.29 15.69,-9.64 25.25,-9.64 10.82,0 22.05,4.29 30.63,13.26 8.46,8.89 14.63,22.48 14.81,42.19 0.04,-13.74 2.82,-25.67 7.57,-35.58 -3.08,-6.56 -7,-12.24 -11.54,-16.98 -11.48,-12 -26.69,-17.89 -41.45,-17.89 m 60.42,70.61 c 0,0.07 0,0.15 0,0.22 0,0.03 0,0.05 0,0.07 0,-0.09 0,-0.19 0,-0.29"
         id="path208" /></clipPath><clipPath
       clipPathUnits="userSpaceOnUse"
       id="clipPath222"><path
         d="m 6538.38,5839.8 c -15.13,0 -30.74,5.83 -42.58,17.82 -4.74,4.78 -8.82,10.53 -12.01,17.19 -4.75,9.91 -7.53,21.84 -7.57,35.58 0,0.16 0,0.31 0,0.46 l 0.01,0.34 c 0,0.07 0,0.13 0,0.2 1.59,-0.41 3.17,-0.61 4.78,-0.61 3.18,0 6.43,0.79 9.9,2.35 0.21,-0.72 0.33,-1.49 0.31,-2.29 0,-0.02 0,-0.04 0,-0.07 0,-0.07 0,-0.15 0,-0.22 0.1,-19.8 6.44,-33.43 15.25,-42.39 8.87,-9 20.59,-13.36 31.91,-13.36 9.99,0 19.46,3.4 26.32,9.71 6.83,6.34 11.43,15.51 11.5,28.72 0,4.14 3.36,7.49 7.5,7.49 h 0.01 c 4.14,0 7.49,-3.36 7.49,-7.51 0.03,-16.85 -6.37,-30.65 -16.35,-39.75 -9.97,-9.14 -23.13,-13.66 -36.47,-13.66"
         id="path220" /></clipPath><clipPath
       clipPathUnits="userSpaceOnUse"
       id="clipPath234"><path
         d="m 6481.01,5910.78 c -1.61,0 -3.19,0.2 -4.78,0.61 -2.67,0.69 -5.32,1.96 -8.05,3.82 0,0 -15.79,10.55 -29.7,19.94 -13.9,9.39 -3.64,34.13 14.16,34.13 0.01,0 0.02,0 0.03,0 l 61.35,-0.08 c 17.82,-0.02 28.58,-25.52 14.1,-34.16 -14.48,-8.64 -33.32,-19.88 -33.32,-19.88 -1.33,-0.78 -2.63,-1.46 -3.89,-2.03 -3.47,-1.56 -6.72,-2.35 -9.9,-2.35"
         id="path232" /></clipPath><clipPath
       clipPathUnits="userSpaceOnUse"
       id="clipPath246"><path
         d="m 5999.44,5782.44 c -26.92,0 -50.24,7.56 -69.44,20.81 v 321.87 c 42.76,61.03 102.36,100.31 164.73,100.31 0.07,0 0.12,0 0.19,0 99.41,-0.13 137.09,-96.87 139.71,-228.51 2.67,-134.62 -117.33,-214.48 -235.19,-214.48 m 80.16,317.88 c -34.85,0 -63.12,-28.23 -63.16,-63.09 -0.05,-34.88 28.19,-63.2 63.08,-63.25 0.03,0 0.05,0 0.08,0 34.85,0 63.13,28.23 63.17,63.09 0.05,34.89 -28.2,63.21 -63.09,63.25 -0.03,0 -0.05,0 -0.08,0"
         id="path244" /></clipPath><clipPath
       clipPathUnits="userSpaceOnUse"
       id="clipPath258"><path
         d="m 6079.6,5973.98 c -0.03,0 -0.05,0 -0.08,0 -34.89,0.05 -63.13,28.37 -63.08,63.25 0.04,34.86 28.31,63.09 63.16,63.09 0.03,0 0.05,0 0.08,0 34.89,-0.04 63.14,-28.36 63.09,-63.25 -0.04,-34.86 -28.32,-63.09 -63.17,-63.09 m -0.06,88.02 c 0.01,0 0.02,0 0.03,0 6.88,0 13.59,-2.37 18.44,-6.91 4.84,-4.56 8.27,-11.28 8.33,-21.77 0,-4.14 3.35,-7.5 7.5,-7.5 4.14,0 7.5,3.36 7.5,7.5 0.05,13.97 -5.08,25.34 -13.1,32.75 -8,7.43 -18.42,10.93 -28.67,10.93 -10.24,-0.01 -20.54,-3.46 -28.51,-10.54 -7.98,-7.04 -13.27,-17.91 -13.22,-31.01 -0.01,-4.14 3.34,-7.5 7.49,-7.51 h 0.01 c 4.13,0 7.49,3.35 7.5,7.49 0.06,9.27 3.35,15.43 8.2,19.83 4.86,4.35 11.64,6.74 18.5,6.74"
         id="path256" /></clipPath><clipPath
       clipPathUnits="userSpaceOnUse"
       id="clipPath270"><path
         d="m 6113.84,6025.82 c -4.15,0 -7.5,3.36 -7.5,7.5 -0.06,10.49 -3.49,17.21 -8.33,21.77 -4.85,4.54 -11.56,6.91 -18.44,6.91 -0.01,0 -0.02,0 -0.03,0 -6.86,0 -13.64,-2.39 -18.5,-6.74 -4.85,-4.4 -8.14,-10.56 -8.2,-19.83 -0.01,-4.14 -3.37,-7.49 -7.5,-7.49 h -0.01 c -4.15,0.01 -7.5,3.37 -7.49,7.51 -0.05,13.1 5.24,23.97 13.22,31.01 7.97,7.08 18.27,10.53 28.51,10.54 10.25,0 20.67,-3.5 28.67,-10.93 8.02,-7.41 13.15,-18.78 13.1,-32.75 0,-4.14 -3.36,-7.5 -7.5,-7.5"
         id="path268" /></clipPath><clipPath
       clipPathUnits="userSpaceOnUse"
       id="clipPath282"><path
         d="m 6963.57,5782.44 c -117.85,0 -237.85,79.86 -235.18,214.48 2.61,131.64 40.3,228.38 139.71,228.51 0.06,0 0.12,0 0.19,0 60.92,0 119.19,-37.46 161.71,-96.07 v -328.13 c -18.61,-12 -40.89,-18.79 -66.43,-18.79 m -80.15,317.88 c -0.03,0 -0.06,0 -0.09,0 -34.88,-0.04 -63.13,-28.36 -63.08,-63.25 0.04,-34.86 28.32,-63.09 63.17,-63.09 0.02,0 0.05,0 0.08,0 34.88,0.05 63.13,28.37 63.08,63.25 -0.04,34.86 -28.31,63.09 -63.16,63.09"
         id="path280" /></clipPath><clipPath
       clipPathUnits="userSpaceOnUse"
       id="clipPath294"><path
         d="m 6883.42,5973.98 c -34.85,0 -63.13,28.23 -63.17,63.09 -0.05,34.89 28.2,63.21 63.08,63.25 0.03,0 0.06,0 0.09,0 34.85,0 63.12,-28.23 63.16,-63.09 0.05,-34.88 -28.2,-63.2 -63.08,-63.25 -0.03,0 -0.06,0 -0.08,0 m 0.02,103.02 c -10.24,0 -20.67,-3.5 -28.66,-10.93 -8.02,-7.41 -13.15,-18.78 -13.1,-32.75 0,-4.14 3.36,-7.5 7.5,-7.5 4.14,0 7.5,3.36 7.5,7.5 0.06,10.49 3.49,17.21 8.32,21.77 4.86,4.54 11.56,6.91 18.44,6.91 0.02,0 0.03,0 0.04,0 6.85,0 13.64,-2.39 18.5,-6.74 4.85,-4.4 8.13,-10.56 8.2,-19.83 0.01,-4.14 3.36,-7.49 7.5,-7.49 h 0.01 c 4.14,0.01 7.5,3.37 7.49,7.51 v 0 c 0.04,13.1 -5.24,23.97 -13.22,31.01 -7.97,7.08 -18.27,10.53 -28.52,10.54"
         id="path292" /></clipPath><clipPath
       clipPathUnits="userSpaceOnUse"
       id="clipPath306"><path
         d="m 6849.18,6025.82 c -4.14,0 -7.5,3.36 -7.5,7.5 -0.05,13.97 5.08,25.34 13.1,32.75 7.99,7.43 18.42,10.93 28.66,10.93 10.25,-0.01 20.55,-3.46 28.52,-10.54 7.98,-7.04 13.26,-17.91 13.22,-31.01 v 0 c 0.01,-4.14 -3.35,-7.5 -7.49,-7.51 h -0.01 c -4.14,0 -7.49,3.35 -7.5,7.49 -0.07,9.27 -3.35,15.43 -8.2,19.83 -4.86,4.35 -11.65,6.74 -18.5,6.74 -0.01,0 -0.02,0 -0.04,0 -6.88,0 -13.58,-2.37 -18.44,-6.91 -4.83,-4.56 -8.26,-11.28 -8.32,-21.77 0,-4.14 -3.36,-7.5 -7.5,-7.5"
         id="path304" /></clipPath><clipPath
       clipPathUnits="userSpaceOnUse"
       id="clipPath462"><path
         d="m 7030,1310 h -418.88 c 26.84,1.52 55.74,3.67 86.47,6.64 43.51,4.23 90.67,10.33 140.66,19.38 49.96,9.19 102.84,20.89 157.37,39.15 11.41,3.68 22.87,7.75 34.38,12.2 V 1310 m -673.66,0 H 5930 v 81.02 c 15.37,-6.11 30.67,-11.58 45.77,-16.65 54.55,-18.21 107.44,-29.7 157.42,-38.91 50,-9.04 97.16,-14.97 140.68,-19.15 29.2,-2.79 56.77,-4.84 82.47,-6.31"
         id="path460" /></clipPath><clipPath
       clipPathUnits="userSpaceOnUse"
       id="clipPath474"><path
         d="m 6611.12,1310 h -254.78 c -25.7,1.47 -53.27,3.52 -82.47,6.31 -43.52,4.18 -90.68,10.11 -140.68,19.15 -49.98,9.21 -102.87,20.7 -157.42,38.91 -15.1,5.07 -30.4,10.54 -45.77,16.65 v 57.07 c 179.29,-78.28 446.23,-89.76 553.27,-89.76 0.15,0 0.3,0 0.45,0 0.14,0 0.31,0 0.45,0 105.2,0 365.96,11.1 545.83,85.82 v -56.78 c -11.51,-4.45 -22.97,-8.52 -34.38,-12.2 -54.53,-18.26 -107.41,-29.96 -157.37,-39.15 -49.99,-9.05 -97.15,-15.15 -140.66,-19.38 -30.73,-2.97 -59.63,-5.12 -86.47,-6.64"
         id="path472" /></clipPath><clipPath
       clipPathUnits="userSpaceOnUse"
       id="clipPath486"><path
         d="m 6484.17,1358.33 c -0.14,0 -0.31,0 -0.45,0 -0.15,0 -0.3,0 -0.45,0 -107.04,0 -373.98,11.48 -553.27,89.76 v 45.16 c 19.2,-13.25 42.52,-20.81 69.44,-20.81 117.86,0 237.86,79.86 235.19,214.48 -2.62,131.64 -40.3,228.38 -139.71,228.51 -0.07,0 -0.12,0 -0.19,0 -62.37,0 -121.97,-39.28 -164.73,-100.31 V 2110 h 1100 v -290.64 c -42.52,58.61 -100.79,96.07 -161.71,96.07 -0.07,0 -0.13,0 -0.19,0 -99.41,-0.13 -137.1,-96.87 -139.71,-228.51 -2.67,-134.62 117.33,-214.48 235.18,-214.48 25.54,0 47.82,6.8 66.43,18.79 v -47.08 c -179.87,-74.72 -440.63,-85.82 -545.83,-85.82 m -31.53,297.42 c -17.8,0 -28.06,-24.74 -14.16,-34.13 13.91,-9.39 29.7,-19.94 29.7,-19.94 4.34,-2.97 8.51,-4.43 12.83,-4.43 4.34,0 8.82,1.47 13.79,4.38 0,0 18.84,11.24 33.32,19.88 14.48,8.64 3.72,34.14 -14.1,34.16 l -61.35,0.08 c -0.01,0 -0.02,0 -0.03,0"
         id="path484" /></clipPath><clipPath
       clipPathUnits="userSpaceOnUse"
       id="clipPath498"><path
         d="m 6481.01,1597.25 c -4.32,0 -8.49,1.46 -12.83,4.43 0,0 -15.79,10.55 -29.7,19.94 -13.9,9.39 -3.64,34.13 14.16,34.13 0.01,0 0.02,0 0.03,0 l 61.35,-0.08 c 17.82,-0.02 28.58,-25.52 14.1,-34.16 -14.48,-8.64 -33.32,-19.88 -33.32,-19.88 -4.97,-2.91 -9.45,-4.38 -13.79,-4.38"
         id="path496" /></clipPath><clipPath
       clipPathUnits="userSpaceOnUse"
       id="clipPath510"><path
         d="m 5999.44,1472.44 c -26.92,0 -50.24,7.56 -69.44,20.81 v 321.87 c 42.76,61.03 102.36,100.31 164.73,100.31 0.07,0 0.12,0 0.19,0 99.41,-0.13 137.09,-96.87 139.71,-228.51 2.67,-134.62 -117.33,-214.48 -235.19,-214.48 m 80.16,317.88 c -34.85,0 -63.12,-28.23 -63.16,-63.09 -0.05,-34.88 28.19,-63.2 63.08,-63.25 0.03,0 0.05,0 0.08,0 34.85,0 63.13,28.23 63.17,63.09 0.05,34.89 -28.2,63.21 -63.09,63.25 -0.02,0 -0.05,0 -0.08,0"
         id="path508" /></clipPath><clipPath
       clipPathUnits="userSpaceOnUse"
       id="clipPath522"><path
         d="m 6079.6,1663.98 c -0.03,0 -0.05,0 -0.08,0 -34.89,0.05 -63.13,28.37 -63.08,63.25 0.04,34.86 28.31,63.09 63.16,63.09 0.03,0 0.06,0 0.08,0 34.89,-0.04 63.14,-28.36 63.09,-63.25 -0.04,-34.86 -28.32,-63.09 -63.17,-63.09 m -34.26,70.9 c -0.01,0 -0.01,0 -0.01,0 -4.15,-0.01 -7.5,-3.37 -7.49,-7.51 -0.05,-13.1 5.24,-23.97 13.22,-31.01 7.97,-7.07 18.27,-10.53 28.51,-10.54 10.25,0 20.67,3.5 28.67,10.93 8.02,7.41 13.15,18.78 13.1,32.75 0,4.14 -3.36,7.5 -7.5,7.5 -4.14,0 -7.5,-3.36 -7.5,-7.5 -0.06,-10.49 -3.49,-17.2 -8.33,-21.77 -4.85,-4.54 -11.56,-6.91 -18.44,-6.91 -0.01,0 -0.02,0 -0.03,0 -6.86,0 -13.64,2.39 -18.5,6.74 -4.85,4.4 -8.14,10.56 -8.2,19.83 -0.01,4.14 -3.37,7.49 -7.5,7.49"
         id="path520" /></clipPath><clipPath
       clipPathUnits="userSpaceOnUse"
       id="clipPath534"><path
         d="m 6079.57,1685.82 c -10.24,0.01 -20.54,3.47 -28.51,10.54 -7.98,7.04 -13.27,17.91 -13.22,31.01 -0.01,4.14 3.34,7.5 7.49,7.51 0,0 0,0 0.01,0 4.13,0 7.49,-3.35 7.5,-7.49 0.06,-9.27 3.35,-15.43 8.2,-19.83 4.86,-4.35 11.64,-6.74 18.5,-6.74 0.01,0 0.02,0 0.03,0 6.88,0 13.59,2.37 18.44,6.91 4.84,4.57 8.27,11.28 8.33,21.77 0,4.14 3.36,7.5 7.5,7.5 4.14,0 7.5,-3.36 7.5,-7.5 0.05,-13.97 -5.08,-25.34 -13.1,-32.75 -8,-7.43 -18.42,-10.93 -28.67,-10.93"
         id="path532" /></clipPath><clipPath
       clipPathUnits="userSpaceOnUse"
       id="clipPath546"><path
         d="m 6963.57,1472.44 c -117.85,0 -237.85,79.86 -235.18,214.48 2.61,131.64 40.3,228.38 139.71,228.51 0.06,0 0.12,0 0.19,0 60.92,0 119.19,-37.46 161.71,-96.07 v -328.13 c -18.61,-11.99 -40.89,-18.79 -66.43,-18.79 m -80.15,317.88 c -0.03,0 -0.06,0 -0.09,0 -34.88,-0.04 -63.13,-28.36 -63.08,-63.25 0.04,-34.86 28.32,-63.08 63.17,-63.09 0.02,0 0.05,0 0.08,0 34.88,0.05 63.13,28.37 63.08,63.25 -0.04,34.86 -28.32,63.09 -63.16,63.09"
         id="path544" /></clipPath><clipPath
       clipPathUnits="userSpaceOnUse"
       id="clipPath558"><path
         d="m 6883.42,1663.98 c -34.85,0.01 -63.13,28.23 -63.17,63.09 -0.05,34.89 28.2,63.21 63.08,63.25 0.03,0 0.06,0 0.09,0 34.84,0 63.12,-28.23 63.16,-63.09 0.05,-34.88 -28.2,-63.2 -63.08,-63.25 -0.03,0 -0.06,0 -0.08,0 m -34.24,73.02 c -4.14,0 -7.5,-3.36 -7.5,-7.5 -0.05,-13.97 5.08,-25.34 13.1,-32.75 7.99,-7.43 18.42,-10.93 28.66,-10.93 10.25,0.01 20.55,3.47 28.52,10.54 7.98,7.04 13.26,17.91 13.22,31.01 0.01,4.14 -3.35,7.5 -7.49,7.51 h -0.01 c -4.14,0 -7.49,-3.35 -7.5,-7.49 v 0 c -0.07,-9.27 -3.35,-15.43 -8.2,-19.83 -4.86,-4.35 -11.65,-6.74 -18.5,-6.74 -0.01,0 -0.02,0 -0.04,0 -6.88,0 -13.58,2.37 -18.44,6.91 -4.83,4.56 -8.26,11.28 -8.32,21.77 0,4.14 -3.36,7.5 -7.5,7.5"
         id="path556" /></clipPath><clipPath
       clipPathUnits="userSpaceOnUse"
       id="clipPath570"><path
         d="m 6883.44,1685.82 c -10.24,0 -20.67,3.5 -28.66,10.93 -8.02,7.41 -13.15,18.78 -13.1,32.75 0,4.14 3.36,7.5 7.5,7.5 4.14,0 7.5,-3.36 7.5,-7.5 0.06,-10.49 3.49,-17.21 8.32,-21.77 4.86,-4.54 11.56,-6.91 18.44,-6.91 0.02,0 0.03,0 0.04,0 6.85,0 13.64,2.39 18.5,6.74 4.85,4.4 8.13,10.56 8.2,19.83 v 0 c 0.01,4.14 3.36,7.49 7.5,7.49 h 0.01 c 4.14,-0.01 7.5,-3.37 7.49,-7.51 0.04,-13.1 -5.24,-23.97 -13.22,-31.01 -7.97,-7.07 -18.27,-10.53 -28.52,-10.54"
         id="path568" /></clipPath><clipPath
       id="clipPath120"
       clipPathUnits="userSpaceOnUse"><path
         id="path118"
         d="m 26986.5,22034 c -324.8,0 -649.4,46.9 -973.4,136.1 -5.1,1.4 -10.3,2.8 -15.4,4.3 -166.7,46.6 -270.8,156.4 -326.3,318.3 -61.3,179 -93.3,361 -102.7,545.2 -6.1,120.1 -2.6,241.2 8.5,363.1 13,143.3 113.5,203.5 225.9,226.8 11.2,2.3 22.4,4.2 33.7,5.8 362.6,51.9 727.2,89.5 1091.5,129.5 25.8,2.8 51.8,3.7 77.9,3.7 45.1,0 90.5,-2.7 135.6,-2.7 0,0.1 0,0.1 0,0.1 v 0 c 0,0 0,0 0,0.1 0.6,0.6 4.6,0.9 11.6,0.9 22.5,0 76.1,-3 149.6,-8.2 157.8,-11.1 406.9,-31.9 633.4,-53.6 116.7,-11.2 227.5,-22.6 316.6,-32.9 22.9,-2.7 43.9,-6.8 63.3,-12.5 -25.8,-377.2 -82.1,-865.1 -201.2,-1399.1 -65.3,-45.3 -140.3,-76.9 -220.5,-99.4 -302.8,-84.8 -605.6,-125.5 -908.1,-125.5 m -1202.8,789.9 c 147,-127.6 344.7,-330.3 639.5,-366 31.6,-3.9 62.8,-5.7 93.7,-5.7 248.1,0 472.7,114.2 685.2,181.4 -204.2,-54.1 -422.8,-158.7 -667.6,-158.7 -32.6,0 -65.7,1.8 -99.3,5.9 -295.9,35.9 -499.1,229.9 -651.5,343.1 m 732.5,569.4 c -447.2,0 -808.5,-448.9 -808.5,-448.9 0,0 361.3,-448.6 808.5,-448.6 445.8,0 807.5,448.6 807.5,448.6 0,0 -361.7,448.9 -807.5,448.9 m 904.5,-507 v 0 0 c -14.9,55 -139.7,262.5 -196.6,364.2 13.9,-4.3 60.6,-17.4 123.2,-17.4 45.3,0 98.9,6.9 154.3,28.8 147.2,58.1 235.5,160.9 235.5,160.9 0,0 -47.1,-11.7 -153,-25.3 -61.3,-7.8 -126.1,-14.8 -195.5,-14.8 -50.7,0 -103.8,3.7 -159.7,13.6 -132.5,23.2 -233.6,74 -233.6,74 l 0.8,-0.9 c -89.6,51.2 -197,89.5 -318.7,108.5 -27.5,4.3 -55.1,6.3 -82.5,6.3 -398.4,0 -782.9,-427.3 -862,-579.7 0,-0.1 -0.1,-0.1 -0.1,-0.2 0.1,0.1 0.1,0.1 0.1,0.2 4.1,7 145.7,213.9 319.4,306.5 145.1,77.2 287.8,128.3 449.3,128.3 39.9,0 81,-3.1 123.6,-9.7 420.6,-65.7 703.2,-385.6 795.5,-543.3" /></clipPath></defs><g
     id="g10"
     transform="matrix(1.3333333,0,0,-1.3333333,0,1066.6667)"><g
       id="g12"
       transform="matrix(0.1,0,0,0.1,-2.7187501,5.7187501)"><rect
         style="fill:#ffffff;stroke-width:62.3174"
         id="rect81"
         width="18728.074"
         height="18662.408"
         x="27.187502"
         y="-7937.5098"
         transform="scale(1,-1)" /><path
         d="m 4614.2976,4061.589 c -432.1943,555.9663 -261.1207,1378.8742 382.0581,1837.9919 643.179,459.1168 1514.9623,380.6127 1947.1064,-175.3537 432.1442,-555.9666 261.1063,-1378.875 -382.0581,-1837.9918 -643.1646,-459.1177 -1514.9479,-380.6138 -1947.1064,175.3536"
         style="fill:#232323;fill-opacity:1;fill-rule:nonzero;stroke:none;stroke-width:7.04302"
         id="path78" /><path
         d="m 14184.725,4099.5251 c 412.726,569.6049 213.385,1386.4902 -445.258,1824.7009 -658.641,438.1409 -1527.229,331.5994 -1939.955,-238.0047 -412.797,-569.5351 -213.385,-1386.49 445.257,-1824.6311 658.642,-438.1412 1527.23,-331.6005 1939.956,237.9349"
         style="fill:#232323;fill-opacity:1;fill-rule:nonzero;stroke:none;stroke-width:7.04302"
         id="path80" /><path
         d="m 9388.0038,-1370.8377 c -352.1068,3.7386 -850.8895,21.7372 -1442.7499,80.581 -295.8584,29.5596 -615.0763,69.9891 -948.338,129.1091 -332.4739,59.8823 -682.0011,133.9555 -1025.7243,244.44276 -342.6845,108.82583 -687.9124,251.43484 -965.2915,451.15583 -138.1557,99.13403 -257.8392,211.90638 -340.0761,336.30821 -18.0497,31.913511 -35.741,63.758223 -54.9944,95.257101 l -41.6237,99.272418 c -11.393,33.920774 -17.4405,69.296321 -28.0453,103.702371 -8.4838,34.68308 -7.7243,68.95074 -13.9939,103.42638 -0.9531,9.20679 -3.0812,15.85303 -3.3034,27.20653 l 0.4445,36.62128 0.8957,73.45029 1.5978,147.10881 c -0.867,97.47234 7.5595,198.89067 10.9417,298.44013 2.9163,100.31071 12.4319,199.79059 20.629,299.47839 6.7213,99.9644 18.2216,199.1677 31.0404,298.0247 48.5671,396.0511 127.2716,786.1477 241.6955,1158.0389 114.5029,371.752 263.5499,725.9205 449.9644,1046.9279 186.9162,320.6626 408.7349,608.5804 654.0058,855.5149 489.8254,497.6078 1074.8071,815.3622 1600.9612,1009.9613 528.5901,194.9442 995.558,284.0403 1321.8694,345.0298 81.9007,14.1918 154.9876,28.3146 218.6873,42.2295 63.7719,12.5293 118.229,23.3296 162.2958,35.3747 88.2058,23.6066 135.4972,47.9748 135.354,73.0354 -0.084,23.3299 -47.7217,44.3056 -138.7218,63.2044 -45.4284,9.1377 -101.8199,18.8997 -168.3862,26.0293 -66.5661,5.8154 -143.4512,10.6619 -230.0806,14.6772 -345.2991,11.2836 -850.1006,-16.5458 -1447.8366,-176.6692 -298.1516,-79.8883 -617.0825,-198.6137 -938.5933,-365.1064 -321.7255,-165.7306 -642.6631,-385.1823 -939.0876,-655.6544 -296.5823,-270.1953 -566.8821,-592.1725 -794.0175,-950.9792 -226.5765,-359.2216 -407.7243,-754.6498 -546.7543,-1165.7228 -139.0226,-411.42 -235.1392,-838.9004 -296.4103,-1268.5264 -16.0648,-107.4415 -30.3956,-215.0208 -39.7177,-322.6696 -10.8556,-107.6489 -22.6712,-215.2978 -27.7085,-322.73873 -5.5961,-107.92593 -15.7853,-213.63635 -16.767,-323.36235 l -3.9982,-163.16903 -1.906,-81.48092 -0.9243,-40.70567 c 0.3653,-14.95312 2.4647,-33.36828 3.7546,-49.91324 7.2156,-67.4973 10.1031,-136.863467 24.3479,-202.283119 16.0074,-64.79678 29.335,-130.701444 50.3512,-193.906651 24.355,-62.02799 47.6426,-125.02469 75.5159,-185.11449 31.6567,-57.80523 63.5426,-115.74832 97.2127,-172.03077 143.0568,-219.93517 328.5685,-391.27375 518.7592,-530.42123 384.2149,-277.8105 791.9466,-439.7338 1181.3135,-566.0045 390.8714,-126.0633 769.8484,-205.6057 1127.9741,-269.3648 358.2691,-62.5812 696.1885,-103.6338 1008.0257,-132.6401 623.8902,-57.4586 1142.5204,-69.5046 1518.273,-65.9737 375.4653,-2.4923 894.0953,10.0379 1517.8423,68.3278 311.766,29.2834 649.685,71.5118 1007.811,134.1627 358.054,63.6206 736.959,144.6163 1127.688,271.0264 195.471,60.9199 393.451,137.4856 592.146,227.5512 198.769,89.0263 397.178,202.4207 588.278,341.5685 189.955,140.04766 374.32,313.32338 516.481,533.88248 32.889,56.97518 65.563,114.36419 96.661,172.51526 25.652,61.47392 50.444,123.64057 74.305,186.0144 17.913,64.243494 33.39,129.455961 48.653,194.599367 11.107,66.527793 15.979,135.270043 22.356,202.974783 4.442,37.17563 1.29,59.25948 1.29,87.71174 l -1.935,81.48092 -4.012,163.16903 c -1.434,109.58735 -11.752,215.29778 -17.341,323.29276 -4.944,107.51026 -17.77,215.15916 -28.375,322.80826 -9.315,107.7185 -24.649,215.229 -40.484,322.6696 -62.339,429.6957 -159.86,857.0377 -300.444,1268.1107 -140.872,410.5889 -323.159,805.7401 -552.308,1163.5773 -228.791,357.8371 -500.502,678.5683 -798.08,947.5875 -297.292,269.433 -619.305,487.2233 -941.245,652.1233 -321.868,165.5232 -640.657,283.9715 -938.951,363.4452 -597.737,159.2923 -1102.466,187.1913 -1447.7656,175.8381 -86.5579,-3.9465 -163.442,-8.8618 -230.0083,-14.6772 -66.6385,-7.1296 -122.9585,-16.8916 -168.4585,-26.0293 -91.0003,-18.8988 -138.5786,-39.8745 -138.7218,-63.2044 -0.084,-25.0606 47.1482,-49.4288 135.3541,-73.0354 44.1392,-12.0451 98.5237,-22.8454 162.2958,-35.3747 63.7003,-13.9149 136.859,-28.0377 218.7597,-42.2295 326.3116,-60.9199 793.2786,-150.0158 1322.2996,-344.4069 526.225,-194.5295 1112.64,-510.3454 1604.614,-1006.2918 246.419,-246.1042 469.548,-533.1221 657.926,-852.8837 188.737,-319.6929 338.636,-673.6542 454.715,-1044.6447 115.721,-371.406 195.687,-761.0879 245.2,-1156.8619 12.539,-98.9258 25.079,-197.8522 31.742,-297.8173 7.882,-99.7566 18.343,-199.02905 21.21,-299.34003 3.439,-99.54866 11.823,-200.82913 11.464,-298.50892 l 1.576,-147.03896 0.932,-73.45134 c -0.358,-22.77552 2.364,-53.16625 -1.648,-66.94243 l -12.898,-103.14908 c -10.103,-34.5447 -18.486,-69.15873 -27.013,-103.841813 -14.761,-32.883271 -28.375,-65.9041366 -41.058,-99.341216 -18.558,-31.637528 -37.475,-62.996965 -54.815,-95.118711 -81.613,-124.26344 -199.699,-237.58908 -337.203,-337.13853 -275.867,-200.55184 -621.023,-343.78372 -963.385,-453.02524 -343.58,-110.69473 -692.606,-186.08343 -1025.223,-245.89593 -333.261,-59.1208 -652.193,-100.7264 -948.052,-130.5631 -591.86,-59.6053 -1090.6418,-78.0892 -1443.0352,-82.7965"
         style="fill:#202020;fill-opacity:1;fill-rule:nonzero;stroke:none;stroke-width:7.04302"
         id="path82" /><path
         d="m 9374.2458,6017.2676 c -3097.2358,0 -5222.9822,-1850.5919 -5222.9822,-5728.78965 68.5153,-1822.83125 4035.0338,-2013.55295 5222.9822,-2013.20715 1188.0202,-0.3482 5172.8322,190.3759 5241.3322,2013.20715 0,3878.19775 -2144.024,5728.78965 -5241.3322,5728.78965"
         style="fill:#ffffff;fill-opacity:1;fill-rule:nonzero;stroke:none;stroke-width:7.04302"
         id="path84" /><path
         d="m 8626.8251,-165.93194 v -0.7631 c -0.2831,-116.23281 43.7087,-211.42085 113.2132,-274.76444 69.2889,-63.55103 161.436,-95.32589 254.8724,-95.2571 105.8328,-0.0843 214.8177,40.70646 297.1479,123.84855 82.4019,83.07276 135.9992,207.61324 135.9276,367.875091 0.084,28.660505 -24.0037,51.9205091 -53.6688,51.9903614 -29.6644,0 -53.7403,-23.1912064 -53.812,-51.8517114 -0.4328,-138.662491 -44.8551,-234.058241 -106.119,-296.224621 -61.4791,-62.09785 -141.8749,-91.79586 -219.4757,-91.79586 -68.5013,0 -133.4911,23.19121 -180.8541,66.73498 -47.2196,43.68243 -79.3929,107.58009 -79.7507,199.44475 v 0.48106 c 0.084,28.6605 -23.9329,51.9213 -53.5974,52.05915 -29.6643,0.0817 -53.812,-23.12161 -53.8834,-51.78212"
         style="fill:#232323;fill-opacity:1;fill-rule:nonzero;stroke:none;stroke-width:7.04302"
         id="path86" /><path
         d="m 10036.9,-167.80055 c -0.499,-91.45002 -33.462,-154.932 -82.4019,-198.82188 -49.0826,-43.68242 -117.0106,-67.22025 -188.5925,-67.22025 -81.1118,0 -165.0902,30.18328 -228.6472,92.48831 -63.4135,62.37383 -108.9859,157.2851 -109.2722,295.532167 v 0.489229 c 0.2165,28.729302 -23.6456,52.1279567 -53.3101,52.3361954 -29.7369,0.2082388 -53.9552,-22.9149604 -54.1707,-51.5746744 v -1.246797 c -0.2831,-160.60769 55.2453,-285.63265 140.2982,-368.49796 84.8381,-83.0037 196.6898,-123.36327 305.102,-123.36327 95.5864,0 189.8826,31.29064 261.3214,94.56437 71.51,62.99776 117.369,158.5319 117.154,275.18012 0.08,28.72931 -24.004,51.98931 -53.668,51.98931 -29.666,0.0844 -53.741,-23.1912 -53.813,-51.85092"
         style="fill:#232323;fill-opacity:1;fill-rule:nonzero;stroke:none;stroke-width:7.04302"
         id="path88" /><path
         d="m 9167.2382,381.39013 439.5961,-0.5807 c 127.6873,-0.13971 204.7862,-186.57744 101.0318,-249.74521 -103.7544,-63.166981 -238.7506,-145.343789 -238.7506,-145.343789 -71.0084,-42.476487 -128.4038,-43.061137 -190.7424,0.365077 0,0 -113.0693,77.132158 -212.8117,145.782412 -99.6709,68.72406 -26.0105,249.67324 101.6768,249.52642"
         style="fill:#232323;fill-opacity:1;fill-rule:nonzero;stroke:none;stroke-width:7.23783"
         id="path90" /><path
         d="m 7589.4212,549.95069 c 19.1314,-931.87207 -840.7143,-1484.72406 -1685.226,-1484.72406 -712.3034,0 -1072.2204,713.39009 -894.3183,1487.97786 204.3495,889.85111 866.1583,1579.63451 1578.4688,1578.73461 712.3105,-0.9002 982.3021,-670.6076 1001.0755,-1581.98841"
         style="fill:#232323;fill-opacity:1;fill-rule:nonzero;stroke:none;stroke-width:7.04302"
         id="path92" /><path
         d="m 6931.2091,827.96839 c -0.2862,-241.5348 -203.21,-437.03381 -453.2102,-436.75678 -250.0001,0.34821 -452.3504,196.39893 -452.0639,437.86493 0.3578,241.53456 203.2818,437.10266 453.2104,436.75676 250.0001,-0.2739 452.4222,-196.3296 452.0637,-437.86491"
         style="fill:#ffffff;fill-opacity:1;fill-rule:nonzero;stroke:none;stroke-width:7.04302"
         id="path94" /><path
         d="m 11127.4,549.95069 c -19.132,-931.87207 840.714,-1484.72406 1685.154,-1484.72406 712.382,0 1072.299,713.39009 894.383,1487.97786 -204.357,889.85111 -866.151,1579.63451 -1578.462,1578.73461 -712.311,-0.9002 -982.374,-670.6076 -1001.075,-1581.98841"
         style="fill:#232323;fill-opacity:1;fill-rule:nonzero;stroke:none;stroke-width:7.04302"
         id="path96" /><path
         d="m 11785.612,827.96839 c 0.283,-241.5348 203.21,-437.03381 453.21,-436.75678 249.928,0.34821 452.35,196.39893 451.993,437.86493 -0.284,241.53456 -203.211,437.10266 -453.139,436.75676 -250.001,-0.2739 -452.423,-196.3296 -452.064,-437.86491"
         style="fill:#ffffff;fill-opacity:1;fill-rule:nonzero;stroke:none;stroke-width:7.04302"
         id="path98" /><g
         transform="matrix(2.4938291,0,0,2.4178644,-55631.04,-17594.114)"
         id="g230" /><g
         transform="matrix(2.4938291,0,0,2.4178644,-55631.04,-17594.114)"
         id="g234" /><g
         transform="matrix(1.600118,0,0,1.5513767,-55631.04,-17594.114)"
         id="g238" /><path
         d="M 14449.908,-7281.4216 H 4310.6892 c -277.0805,0 -501.6084,228.5059 -501.6084,510.314 v 6114.2349 c 0,281.81318 224.5279,510.31909 501.6084,510.31909 H 14449.908 c 276.89,0 501.414,-228.50591 501.414,-510.31909 v -6114.2349 c 0,-281.8081 -224.524,-510.314 -501.414,-510.314"
         style="fill:#999999;fill-opacity:1;fill-rule:nonzero;stroke:none;stroke-width:1.94919"
         id="path240" /><path
         d="m 3895.4517,-7054.9214 c 89.6578,-138.7073 243.8512,-229.7838 419.1048,-229.7838 H 14453.771 c 276.89,0 497.551,227.6555 497.551,509.4687 v 6114.13787 c 0,125.03656 -42.315,239.71152 -115.546,328.47158 L 3895.4517,-7054.9214"
         style="fill:#b3b3b3;fill-opacity:1;fill-rule:nonzero;stroke:none;stroke-width:1.94919"
         id="path244-0" /><g
         transform="matrix(2.3945384,0,0,2.3215982,-55631.04,-17594.114)"
         id="g594" /><g
         transform="matrix(2.383838,0,0,2.3112237,-55631.04,-17594.114)"
         id="g602" /><g
         transform="matrix(2.3056468,0,0,2.2354143,-55631.04,-17594.114)"
         id="g622" /><g
         transform="matrix(2.3698234,0,0,2.297636,-55631.04,-17594.114)"
         id="g682" /><g
         transform="matrix(2.4019331,0,0,2.3287677,-55631.04,-17594.114)"
         id="g714" /><path
         id="path92-6"
         style="fill:#232323;fill-opacity:1;fill-rule:nonzero;stroke:none;stroke-width:7.04298"
         d="m 7612.4068,-6445.2735 c 19.1316,-931.8729 -840.7141,-1484.7241 -1685.226,-1484.7241 -712.3034,0 -1072.2204,713.3901 -894.3183,1487.9771 204.3496,889.8519 866.1584,1579.6353 1578.469,1578.7354 712.3105,-0.8999 982.3019,-670.6075 1001.0753,-1581.9884" /><path
         id="path96-5"
         style="fill:#232323;fill-opacity:1;fill-rule:nonzero;stroke:none;stroke-width:7.04298"
         d="m 11150.385,-6445.2735 c -19.131,-931.8729 840.714,-1484.7241 1685.155,-1484.7241 712.382,0 1072.299,713.3901 894.384,1487.9771 -204.358,889.8519 -866.153,1579.6353 -1578.463,1578.7354 -712.31,-0.8999 -982.374,-670.6075 -1001.076,-1581.9884" /><g
         style="fill:#e6e6e6"
         transform="matrix(62.426914,0,0,-62.208033,13842.073,17000.677)"
         id="_x3C_Group_x3E__4_">
	<g
   style="fill:#e6e6e6"
   transform="matrix(0.07838736,0,0,0.07454452,-102.25959,304.83457)"
   id="g2928">
		<path
   style="fill:#e6e6e6"
   d="m 422.762,507.605 -87.518,-87.503 -42.422,42.422 c -3.662,3.662 -8.979,5.171 -14.048,3.999 -5.068,-1.201 -9.141,-4.922 -10.781,-9.858 L 183.135,202.104 c -1.802,-5.391 -0.396,-11.338 3.618,-15.352 3.999,-3.999 9.961,-5.464 15.352,-3.618 l 254.561,84.858 c 4.937,1.641 8.657,5.713 9.858,10.781 1.187,5.054 -0.322,10.371 -3.999,14.048 l -42.422,42.422 87.503,87.517 c 5.859,5.859 5.859,15.352 0,21.211 l -63.633,63.633 c -5.86,5.861 -15.352,5.861 -21.211,0.001 z"
   id="path2926" />
	</g>
	
	
	<g
   style="fill:#e6e6e6"
   id="g2940">
		
	</g>
	
	
</g></g></g></svg>
